<svg xmlns="http://www.w3.org/2000/svg" width="24" height="24" fill="none" viewBox="0 0 50 50" aria-labelledby="Staff pick" style="color: currentcolor;"><path fill="#000" fill-rule="evenodd" d="M-.001 25c0 13.808 11.194 25 25 25 13.808 0 25-11.192 25-25s-11.192-25-25-25c-13.806 0-25 11.192-25 25" clip-rule="evenodd"></path><path fill="#fff" fill-rule="evenodd" d="M29.01 23.51h2.98v-5.96h-2.98zm2.98-8.942h-5.96v20.863h2.98v-8.94h2.98a2.98 2.98 0 0 0 2.981-2.982v-5.961a2.98 2.98 0 0 0-2.98-2.98M24.044 20.53v-2.98a2.98 2.98 0 0 0-2.98-2.98h-2.981a2.98 2.98 0 0 0-2.981 2.98v5.96a2.98 2.98 0 0 0 2.98 2.98h2.982v5.962h-2.981v-2.98h-2.981v2.98a2.98 2.98 0 0 0 2.98 2.98h2.982a2.98 2.98 0 0 0 2.98-2.98V26.49a2.98 2.98 0 0 0-2.98-2.982h-2.981V17.55h2.981v2.98zM8.096 23.318s-.586.433-1.108.94a17 17 0 0 0-1.055 1.057s-.534-.539-1.025-1.144c-.517-.6-.953-1.26-.953-1.26s.106-1.22.377-2.413c.243-1.2.654-2.356.654-2.356s.296.753.641 1.448c.331.7.739 1.35.739 1.35s.611-.436 1.266-.789c.643-.366 1.292-.656 1.292-.656s-.331.925-.524 1.887a17 17 0 0 0-.304 1.936M8.438 28.783s-.417.595-.755 1.24c-.366.645-.662 1.337-.662 1.337s-.685-.338-1.338-.758c-.676-.406-1.305-.894-1.305-.894s-.282-1.192-.404-2.41c-.147-1.215-.127-2.437-.127-2.437s.53.617 1.069 1.168c.54.557 1.128 1.045 1.128 1.045s.447-.606.95-1.15c.505-.552 1.016-1.034 1.016-1.034s-.018.985.103 1.96c.097.978.325 1.933.325 1.933" clip-rule="evenodd"></path><path fill="#fff" fill-rule="evenodd" d="M10.497 33.848s-.187.688-.317 1.416c-.144.73-.198 1.48-.198 1.48s-.76-.102-1.511-.293c-.757-.176-1.522-.426-1.522-.426s-.644-1.042-1.156-2.153c-.52-1.11-.9-2.274-.9-2.274s.701.416 1.386.767c.706.349 1.401.63 1.401.63s.247-.725.534-1.392c.305-.684.633-1.303.633-1.303s.308.931.722 1.822c.414.89.928 1.726.928 1.726" clip-rule="evenodd"></path><path fill="#fff" fill-rule="evenodd" d="M14.07 38.002s.043.704.145 1.445c.112.715.278 1.469.278 1.469s-.736.118-1.524.198c-.767.063-1.58.074-1.58.074s-.937-.785-1.773-1.677c-.844-.886-1.569-1.869-1.569-1.869s.778.186 1.553.286c.779.108 1.529.153 1.529.153s.003-.764.064-1.492c.054-.731.187-1.44.187-1.44s.585.792 1.263 1.504a19 19 0 0 0 1.426 1.349M9.504 18.035s-.684.227-1.35.533c-.665.298-1.337.667-1.337.667s-.324-.678-.606-1.412c-.288-.73-.502-1.5-.502-1.5s.492-1.122 1.133-2.165c.617-1.056 1.375-2.018 1.375-2.018s.025.793.145 1.573a15 15 0 0 0 .266 1.514s.722-.212 1.453-.342c.712-.149 1.436-.21 1.436-.21s-.61.774-1.103 1.622c-.518.836-.91 1.738-.91 1.738" clip-rule="evenodd"></path><path fill="#fff" fill-rule="evenodd" d="M10.977 10.301s-.444.853-.78 1.722c-.36.856-.598 1.734-.598 1.734s.746-.512 1.537-.91a17 17 0 0 1 1.566-.738s.094-.192.237-.477c.14-.295.346-.678.574-1.05.217-.387.465-.754.658-1.03l.321-.465-.547.145c-.332.088-.778.213-1.21.374-.446.143-.885.315-1.208.46zM46.048 22.91s-.438.661-.955 1.261c-.492.603-1.027 1.144-1.027 1.144s-.508-.562-1.053-1.06a13 13 0 0 0-1.11-.937s-.085-.98-.302-1.937c-.196-.963-.525-1.888-.525-1.888s.647.292 1.293.656c.654.355 1.264.79 1.264.79s.41-.65.74-1.349c.343-.695.64-1.448.64-1.448s.413 1.154.656 2.356c.27 1.194.379 2.412.379 2.412" clip-rule="evenodd"></path><path fill="#fff" fill-rule="evenodd" d="M45.623 29.708s-.628.488-1.306.894c-.653.42-1.336.76-1.336.76s-.297-.694-.663-1.34c-.339-.643-.756-1.239-.756-1.239s.23-.955.325-1.933c.122-.975.105-1.96.105-1.96s.51.484 1.014 1.034c.501.544.951 1.15.951 1.15s.588-.488 1.128-1.044c.538-.552 1.07-1.169 1.07-1.169s.021 1.224-.129 2.438c-.12 1.217-.403 2.41-.403 2.41" clip-rule="evenodd"></path><path fill="#fff" fill-rule="evenodd" d="M43.052 36.021s-.766.252-1.525.428c-.747.191-1.508.293-1.508.293s-.058-.75-.2-1.478c-.128-.729-.317-1.418-.317-1.418s.516-.836.926-1.726c.418-.89.724-1.822.724-1.822s.326.619.633 1.303c.287.669.533 1.394.533 1.394s.697-.281 1.404-.631c.683-.35 1.385-.768 1.385-.768s-.382 1.164-.9 2.274c-.513 1.11-1.155 2.151-1.155 2.151" clip-rule="evenodd"></path><path fill="#fff" fill-rule="evenodd" d="M38.61 41.188s-.812-.011-1.58-.074c-.787-.08-1.521-.198-1.521-.198s.164-.753.275-1.47c.103-.74.147-1.444.147-1.444s.756-.632 1.426-1.349c.678-.712 1.263-1.505 1.263-1.505s.133.71.186 1.441c.062.727.064 1.492.064 1.492s.75-.045 1.53-.153c.778-.1 1.554-.287 1.554-.287s-.727.984-1.57 1.87c-.833.892-1.774 1.676-1.774 1.676M44.291 16.323s-.212.77-.5 1.5c-.284.734-.607 1.411-.607 1.411s-.672-.367-1.336-.666c-.668-.308-1.352-.533-1.352-.533s-.394-.901-.91-1.738c-.493-.849-1.104-1.622-1.104-1.622s.723.06 1.437.21c.73.13 1.454.343 1.454.343s.175-.744.268-1.513c.117-.781.144-1.576.144-1.576s.756.962 1.372 2.018a20 20 0 0 1 1.134 2.166" clip-rule="evenodd"></path><path fill="#fff" fill-rule="evenodd" d="M37.301 12.108s.79.32 1.564.74c.79.396 1.536.909 1.536.909s-.238-.878-.597-1.736c-.336-.867-.78-1.72-.78-1.72s-.22-.096-.551-.236a13 13 0 0 0-1.206-.461c-.435-.16-.88-.285-1.213-.372l-.545-.147.322.466c.192.276.439.642.656 1.03.231.373.436.755.576 1.05.141.285.238.477.238.477" clip-rule="evenodd"></path></svg>